<svg width="30" height="30" viewBox="0 0 35 35" fill="none" xmlns="http://www.w3.org/2000/svg">
<path d="M17.5 32.0833C25.5541 32.0833 32.0833 25.554 32.0833 17.5C32.0833 16.1787 31.9076 14.8986 31.5783 13.6815C31.4539 13.2217 30.9148 13.0387 30.4832 13.2403C29.6403 13.6341 28.7 13.8541 27.7083 13.8541C24.0839 13.8541 21.1458 10.916 21.1458 7.29163C21.1458 6.2999 21.3657 5.35957 21.7596 4.51674C21.9613 4.0852 21.7783 3.54604 21.3185 3.42165C20.1014 3.09233 18.8212 2.91663 17.5 2.91663C9.44583 2.91663 2.91666 9.4458 2.91666 17.5C2.91666 19.8329 3.46444 22.0377 4.43837 23.9932C4.69719 24.5128 4.78334 25.1068 4.63329 25.6675L3.76469 28.9139C3.38763 30.3231 4.67688 31.6123 6.08612 31.2353L9.33243 30.3667C9.89322 30.2166 10.4872 30.3028 11.0068 30.5615C12.9622 31.5355 15.1671 32.0833 17.5 32.0833Z" fill="#D9D9D9"/>
<path d="M27.7083 11.6666C30.1246 11.6666 32.0833 9.70787 32.0833 7.29163C32.0833 4.87538 30.1246 2.91663 27.7083 2.91663C25.2921 2.91663 23.3333 4.87538 23.3333 7.29163C23.3333 9.70787 25.2921 11.6666 27.7083 11.6666Z" fill="#0057FF"/>
</svg>
