<svg width="40" height="40" viewBox="0 0 40 40" fill="none" xmlns="http://www.w3.org/2000/svg">
<g clip-path="url(#clip0_53_1398)">
<path d="M36.5715 6.57141H3.42862C1.69287 6.57141 0.285767 7.97852 0.285767 9.71427V30.2857C0.285767 32.0215 1.69287 33.4286 3.42862 33.4286H36.5715C38.3072 33.4286 39.7143 32.0215 39.7143 30.2857V9.71427C39.7143 7.97852 38.3072 6.57141 36.5715 6.57141Z" fill="white" stroke="#D9D9D9"/>
<g clip-path="url(#clip1_53_1398)">
<path fill-rule="evenodd" clip-rule="evenodd" d="M12.7805 19.8909C12.7805 22.5109 10.6567 24.6348 8.03687 24.6348C5.41701 24.6348 3.29321 22.5109 3.29321 19.8909C3.29321 17.2709 5.41701 15.147 8.03687 15.147C10.6567 15.147 12.7805 17.2709 12.7805 19.8909ZM9.17649 18.1284C9.83637 18.355 10.319 18.6943 10.2243 19.3258C10.1556 19.7882 9.89828 20.0118 9.55646 20.0901C10.0254 20.3334 10.1853 20.7949 10.0368 21.3531C9.75478 22.1563 9.08449 22.2239 8.19296 22.056L7.97649 22.9194L7.4539 22.7895L7.6674 21.9377C7.53193 21.9042 7.39346 21.8683 7.25081 21.83L7.03643 22.686L6.51443 22.5561L6.7306 21.6909L5.678 21.4263L5.93765 20.8302C5.93765 20.8302 6.32296 20.9319 6.3176 20.9245C6.4656 20.9609 6.5314 20.8649 6.55731 20.8011L7.14393 18.4576C7.15046 18.347 7.11205 18.2076 6.90034 18.1548C6.90837 18.1492 6.52069 18.0608 6.52069 18.0608L6.65975 17.5046L7.71384 17.7648L7.92825 16.9094L8.45055 17.0393L8.2406 17.8778C8.38116 17.9095 8.52231 17.9418 8.65957 17.9759L8.86802 17.1428L9.3906 17.2727L9.17649 18.1284ZM7.92607 19.5553C8.28205 19.6497 9.05666 19.8551 9.19169 19.3166C9.32943 18.7657 8.57687 18.5993 8.2084 18.5178C8.16666 18.5086 8.12978 18.5004 8.09975 18.4929L7.83952 19.5328C7.86431 19.5389 7.89343 19.5467 7.92607 19.5553ZM7.52275 21.2296C7.9491 21.3419 8.8816 21.5875 9.02999 20.9942C9.18187 20.3875 8.27775 20.1854 7.8366 20.0868C7.78737 20.0758 7.74378 20.0661 7.70819 20.0572L7.42113 21.2033C7.45028 21.2105 7.48455 21.2195 7.52275 21.2296Z" fill="#F7931A"/>
</g>
<g clip-path="url(#clip2_53_1398)">
<path d="M20 25C22.7614 25 25 22.7614 25 20C25 17.2386 22.7614 15 20 15C17.2386 15 15 17.2386 15 20C15 22.7614 17.2386 25 20 25Z" fill="#627EEA"/>
<path d="M20.1556 16.25V19.0219L22.4985 20.0687L20.1556 16.25Z" fill="white" fill-opacity="0.602"/>
<path d="M20.1556 16.25L17.8125 20.0687L20.1556 19.0219V16.25Z" fill="white"/>
<path d="M20.1556 21.865V23.7484L22.5 20.505L20.1556 21.865Z" fill="white" fill-opacity="0.602"/>
<path d="M20.1556 23.7484V21.8647L17.8125 20.505L20.1556 23.7484Z" fill="white"/>
<path d="M20.1556 21.4291L22.4985 20.0688L20.1556 19.0225V21.4291Z" fill="white" fill-opacity="0.2"/>
<path d="M17.8125 20.0688L20.1556 21.4291V19.0225L17.8125 20.0688Z" fill="white" fill-opacity="0.602"/>
</g>
<g clip-path="url(#clip3_53_1398)">
<path d="M32 15C34.7613 15 37 17.2387 37 20C37 22.7613 34.7612 25 32 25C29.2388 25 27 22.7619 27 20C27 17.2381 29.2384 15 32 15Z" fill="#53AE94"/>
<path d="M32.6171 19.3338V18.59H34.318V17.4567H29.6864V18.59H31.3875V19.3332C30.005 19.3967 28.9655 19.6705 28.9655 19.9985C28.9655 20.3265 30.0055 20.6003 31.3875 20.6642V23.0467H32.6175V20.664C33.9975 20.6003 35.0349 20.3267 35.0349 19.999C35.0349 19.6713 33.9975 19.3977 32.6175 19.334M32.6175 20.4622V20.4616C32.5828 20.4638 32.4045 20.4745 32.0075 20.4745C31.6901 20.4745 31.4668 20.4655 31.3881 20.4614V20.4624C30.1667 20.4083 29.255 20.1956 29.255 19.9411C29.255 19.6866 30.1668 19.4742 31.3881 19.42V20.2505C31.4681 20.256 31.6969 20.2695 32.0127 20.2695C32.392 20.2695 32.5827 20.2537 32.6177 20.2505V19.42C33.8367 19.4743 34.7463 19.6872 34.7463 19.9408C34.7463 20.1944 33.8363 20.4074 32.6177 20.4617" fill="white"/>
</g>
</g>
<defs>
<clipPath id="clip0_53_1398">
<rect width="40" height="40" fill="white"/>
</clipPath>
<clipPath id="clip1_53_1398">
<rect width="10" height="10" fill="white" transform="translate(3 15)"/>
</clipPath>
<clipPath id="clip2_53_1398">
<rect width="10" height="10" fill="white" transform="translate(15 15)"/>
</clipPath>
<clipPath id="clip3_53_1398">
<rect width="10" height="10" fill="white" transform="translate(27 15)"/>
</clipPath>
</defs>
</svg>
