<svg width="40" height="40" viewBox="0 0 40 40" fill="none" xmlns="http://www.w3.org/2000/svg">
<g clip-path="url(#clip0_53_1377)">
<path d="M20 40C31.0457 40 40 31.0457 40 20C40 8.9543 31.0457 0 20 0C8.9543 0 0 8.9543 0 20C0 31.0457 8.9543 40 20 40Z" fill="#5865F2"/>
<path d="M26.9309 13.6328C25.6342 13.0376 24.2657 12.6133 22.8598 12.3703C22.847 12.3679 22.8338 12.3695 22.822 12.3751C22.8102 12.3806 22.8005 12.3897 22.7942 12.4012C22.6075 12.7395 22.438 13.0871 22.2864 13.4426C20.771 13.2124 19.2295 13.2124 17.7141 13.4426C17.5618 13.0862 17.3899 12.7386 17.1992 12.4012C17.1927 12.39 17.1829 12.3811 17.1712 12.3755C17.1595 12.37 17.1464 12.3682 17.1336 12.3703C15.7281 12.6129 14.3601 13.0373 13.0641 13.6328C13.0529 13.6375 13.0435 13.6455 13.0371 13.6558C10.4446 17.5297 9.7344 21.3082 10.0828 25.039C10.0838 25.0482 10.0867 25.0571 10.0912 25.0651C10.0957 25.0732 10.1017 25.0803 10.109 25.0859C11.6187 26.2043 13.3075 27.0579 15.1032 27.6105C15.1158 27.6143 15.1294 27.6141 15.1419 27.61C15.1545 27.6059 15.1655 27.598 15.1735 27.5875C15.559 27.0626 15.9007 26.5068 16.195 25.9258C16.199 25.9178 16.2012 25.9091 16.2017 25.9001C16.2021 25.8912 16.2006 25.8823 16.1973 25.874C16.194 25.8657 16.189 25.8582 16.1826 25.852C16.1762 25.8457 16.1686 25.8409 16.1602 25.8379C15.6214 25.6321 15.0997 25.3839 14.6 25.0957C14.591 25.0904 14.5833 25.0829 14.5779 25.0739C14.5724 25.0649 14.5692 25.0547 14.5686 25.0442C14.5679 25.0337 14.5699 25.0232 14.5743 25.0137C14.5787 25.0041 14.5854 24.9958 14.5938 24.9894C14.6985 24.9113 14.8035 24.8293 14.9035 24.7465C14.9124 24.7392 14.9232 24.7345 14.9345 24.733C14.9459 24.7315 14.9575 24.7332 14.968 24.7379C18.241 26.2324 21.7848 26.2324 25.0192 24.7379C25.0297 24.7328 25.0415 24.7309 25.0531 24.7323C25.0647 24.7336 25.0757 24.7383 25.0848 24.7457C25.1848 24.8281 25.2899 24.9109 25.3973 24.9894C25.4057 24.9957 25.4125 25.004 25.4169 25.0135C25.4214 25.023 25.4234 25.0335 25.4229 25.044C25.4223 25.0545 25.4192 25.0647 25.4138 25.0737C25.4084 25.0827 25.4008 25.0903 25.3918 25.0957C24.8928 25.3867 24.3701 25.635 23.8293 25.8379C23.8209 25.8411 23.8132 25.846 23.8068 25.8523C23.8005 25.8587 23.7955 25.8663 23.7923 25.8748C23.7891 25.8832 23.7877 25.8922 23.7882 25.9012C23.7887 25.9102 23.7912 25.9189 23.7953 25.9269C24.0945 26.5048 24.4357 27.0599 24.816 27.5879C24.8238 27.5987 24.8347 27.6069 24.8473 27.6112C24.86 27.6155 24.8736 27.6156 24.8864 27.6117C26.6845 27.0607 28.3754 26.2069 29.8864 25.0871C29.8938 25.0817 29.8999 25.0748 29.9044 25.0669C29.909 25.0589 29.9117 25.0501 29.9125 25.041C30.3297 20.7269 29.2141 16.9793 26.9555 13.6574C26.9505 13.6466 26.9417 13.6378 26.9309 13.6328ZM16.6832 22.7676C15.6977 22.7676 14.8864 21.8629 14.8864 20.7519C14.8864 19.641 15.6825 18.7363 16.6832 18.7363C17.6922 18.7363 18.4965 19.6488 18.4801 20.7519C18.4809 21.8629 17.6844 22.7676 16.6832 22.7676ZM23.3289 22.7676C22.3434 22.7676 21.5321 21.8629 21.5321 20.7519C21.5321 19.641 22.3282 18.7363 23.3289 18.7363C24.3379 18.7363 25.1422 19.6488 25.1258 20.7519C25.1262 21.8629 24.3379 22.7676 23.3289 22.7676Z" fill="white"/>
</g>
<defs>
<clipPath id="clip0_53_1377">
<rect width="40" height="40" fill="white"/>
</clipPath>
</defs>
</svg>
