<svg width="40" height="40" viewBox="0 0 40 40" fill="none" xmlns="http://www.w3.org/2000/svg">
<g clip-path="url(#clip0_53_1446)">
<path d="M37.2414 6.5517H2.75864C1.42554 6.5517 0.344849 7.63239 0.344849 8.96549V31.0345C0.344849 32.3676 1.42554 33.4482 2.75864 33.4482H37.2414C38.5745 33.4482 39.6552 32.3676 39.6552 31.0345V8.96549C39.6552 7.63239 38.5745 6.5517 37.2414 6.5517Z" fill="white" stroke="#D9D9D9"/>
<path d="M23.6622 26.1907H16.5236V13.4567H23.6622V26.1907Z" fill="#FF5F00"/>
<path d="M16.981 19.8227C16.981 17.2395 18.1994 14.9385 20.097 13.4557C18.7094 12.3713 16.9581 11.7241 15.0548 11.7241C10.5491 11.7241 6.89661 15.3499 6.89661 19.8227C6.89661 24.2954 10.5491 27.9212 15.0548 27.9212C16.9581 27.9212 18.7094 27.274 20.097 26.1897C18.1994 24.7068 16.981 22.4058 16.981 19.8227Z" fill="#EB001B"/>
<path d="M33.29 19.8227C33.29 24.2954 29.6375 27.9212 25.1318 27.9212C23.2285 27.9212 21.4772 27.274 20.0891 26.1897C21.9872 24.7068 23.2057 22.4058 23.2057 19.8227C23.2057 17.2395 21.9872 14.9385 20.0891 13.4557C21.4772 12.3713 23.2285 11.7241 25.1318 11.7241C29.6375 11.7241 33.29 15.3499 33.29 19.8227Z" fill="#F79E1B"/>
</g>
<defs>
<clipPath id="clip0_53_1446">
<rect width="40" height="40" fill="white"/>
</clipPath>
</defs>
</svg>
