<svg width="40" height="40" viewBox="0 0 40 40" fill="none" xmlns="http://www.w3.org/2000/svg">
<g clip-path="url(#clip0_53_1436)">
<path d="M36.5715 6.57141H3.42862C1.69287 6.57141 0.285767 7.97852 0.285767 9.71427V30.2857C0.285767 32.0215 1.69287 33.4286 3.42862 33.4286H36.5715C38.3072 33.4286 39.7143 32.0215 39.7143 30.2857V9.71427C39.7143 7.97852 38.3072 6.57141 36.5715 6.57141Z" fill="white" stroke="#D9D9D9"/>
<path d="M26.2001 19.6165V24H28.6149V21.4024H31.3517C32.5028 21.3942 33.4808 20.6515 33.8511 19.6165H26.2001Z" fill="#37A72E"/>
<path d="M25.8782 16.0042C26.019 17.7941 27.7014 19.2106 29.754 19.2106C29.762 19.2106 33.9518 19.2106 33.9518 19.2106C33.984 19.0483 34.0001 18.8778 34.0001 18.7033C34.0001 17.2177 32.8128 16.0163 31.3437 16.0042H25.8782Z" fill="url(#paint0_linear_53_1436)"/>
<path d="M22.3041 19.166C22.3323 19.1173 22.3766 19.0889 22.4329 19.0889C22.5134 19.0889 22.5738 19.1538 22.5778 19.2309V23.9595H24.9926V16.0042H22.5778C22.2719 16.0163 21.9258 16.2396 21.797 16.5196L19.8772 20.6759C19.8732 20.6921 19.8651 20.7084 19.8571 20.7246C19.8289 20.7652 19.7806 20.7936 19.7243 20.7936C19.6357 20.7936 19.5633 20.7205 19.5633 20.6312V16.0042H17.1484V23.9595H19.5633C19.8651 23.9433 20.2032 23.72 20.332 23.444L22.3041 19.1782C22.3001 19.1741 22.3041 19.1701 22.3041 19.166Z" fill="#37A72E"/>
<path d="M13.2888 19.3039L11.8761 23.9594H10.1374L8.72876 19.2998C8.71669 19.2268 8.65229 19.17 8.5718 19.17C8.48325 19.17 8.41483 19.243 8.41483 19.3283V23.9554H6V16H8.07273H8.68852C9.13123 16 9.5981 16.3491 9.72689 16.7752L10.9021 20.6514C10.9625 20.8463 11.0551 20.8422 11.1154 20.6514L12.2906 16.7752C12.4194 16.345 12.8863 16 13.329 16H13.9448H16.0175V23.9554H13.6027V19.3283C13.6027 19.3283 13.6027 19.3283 13.6027 19.3242C13.6027 19.2349 13.5303 19.1659 13.4457 19.1659C13.3652 19.17 13.3008 19.2268 13.2888 19.3039Z" fill="#37A72E"/>
</g>
<defs>
<linearGradient id="paint0_linear_53_1436" x1="25.8792" y1="17.6074" x2="33.9996" y2="17.6074" gradientUnits="userSpaceOnUse">
<stop stop-color="#00A0E5"/>
<stop offset="1" stop-color="#0077C3"/>
</linearGradient>
<clipPath id="clip0_53_1436">
<rect width="40" height="40" fill="white"/>
</clipPath>
</defs>
</svg>
