<svg width="40" height="40" viewBox="0 0 40 40" fill="none" xmlns="http://www.w3.org/2000/svg">
<g clip-path="url(#clip0_53_1425)">
<path d="M36.5715 6.57141H3.42862C1.69287 6.57141 0.285767 7.97852 0.285767 9.71427V30.2857C0.285767 32.0215 1.69287 33.4286 3.42862 33.4286H36.5715C38.3072 33.4286 39.7143 32.0215 39.7143 30.2857V9.71427C39.7143 7.97852 38.3072 6.57141 36.5715 6.57141Z" fill="white" stroke="#D9D9D9"/>
<g clip-path="url(#clip1_53_1425)">
<path d="M11 13.7887L13.6967 18.5508V21.4555L11.0032 26.2082L11 13.7887Z" fill="#5B57A2"/>
<path d="M21.3541 16.8179L23.881 15.2878L29.0524 15.283L21.3541 19.9423V16.8179Z" fill="#D90751"/>
<path d="M21.3398 13.7606L21.3541 20.0654L18.6511 18.4246V9L21.3398 13.7606Z" fill="#FAB718"/>
<path d="M29.0523 15.283L23.8808 15.2878L21.3398 13.7606L18.6511 9L29.0523 15.283Z" fill="#ED6F26"/>
<path d="M21.3541 26.2346V23.1757L18.6511 21.566L18.6526 31L21.3541 26.2346Z" fill="#63B22F"/>
<path d="M23.8746 24.7185L13.6965 18.5508L11 13.7887L29.0414 24.7122L23.8746 24.7185Z" fill="#1487C9"/>
<path d="M18.6528 31L21.3539 26.2346L23.8745 24.7185L29.0412 24.7122L18.6528 31Z" fill="#017F36"/>
<path d="M11.0032 26.2082L18.6732 21.5662L16.0946 20.0031L13.6967 21.4555L11.0032 26.2082Z" fill="#984995"/>
</g>
</g>
<defs>
<clipPath id="clip0_53_1425">
<rect width="40" height="40" fill="white"/>
</clipPath>
<clipPath id="clip1_53_1425">
<rect width="18" height="22" fill="white" transform="translate(11 9)"/>
</clipPath>
</defs>
</svg>
