<svg width="40" height="40" viewBox="0 0 40 40" fill="none" xmlns="http://www.w3.org/2000/svg">
<g clip-path="url(#clip0_53_1380)">
<path d="M20 0C8.95422 0 0 8.95422 0 20C0 31.0458 8.95422 40 20 40C31.0458 40 40 31.0458 40 20C40 8.95422 31.0458 0 20 0Z" fill="#40B3E0"/>
<path d="M29.7316 11.5048L26.1595 29.5153C26.1595 29.5153 25.6599 30.7644 24.286 30.1648L16.0426 23.8448L13.0451 22.3961L7.99915 20.6973C7.99915 20.6973 7.22477 20.4227 7.14977 19.8231C7.07493 19.2236 8.02415 18.8989 8.02415 18.8989L28.0829 11.0302C28.0829 11.0302 29.7316 10.3058 29.7316 11.5048Z" fill="white"/>
<path d="M15.409 29.313C15.409 29.313 15.1684 29.2905 14.8685 28.3411C14.5689 27.3919 13.0451 22.396 13.0451 22.396L25.1603 14.7022C25.1603 14.7022 25.8598 14.2776 25.8348 14.7022C25.8348 14.7022 25.9596 14.7771 25.5849 15.1268C25.2103 15.4766 16.0676 23.6949 16.0676 23.6949" fill="#D2E5F1"/>
<path d="M19.2034 26.268L15.9427 29.2409C15.9427 29.2409 15.6879 29.4343 15.409 29.313L16.0334 23.791" fill="#B5CFE4"/>
</g>
<defs>
<clipPath id="clip0_53_1380">
<rect width="40" height="40" fill="white"/>
</clipPath>
</defs>
</svg>
