<svg width="40" height="40" viewBox="0 0 40 40" fill="none" xmlns="http://www.w3.org/2000/svg">
<g clip-path="url(#clip0_53_1451)">
<path d="M36.5715 6.57141H3.42862C1.69287 6.57141 0.285767 7.97852 0.285767 9.71427V30.2857C0.285767 32.0215 1.69287 33.4286 3.42862 33.4286H36.5715C38.3072 33.4286 39.7143 32.0215 39.7143 30.2857V9.71427C39.7143 7.97852 38.3072 6.57141 36.5715 6.57141Z" fill="white" stroke="#D9D9D9"/>
<path fill-rule="evenodd" clip-rule="evenodd" d="M12.1431 24.8666H9.71991L7.90277 17.9341C7.81654 17.6153 7.63339 17.3333 7.36402 17.2005C6.69174 16.8666 5.95094 16.6008 5.14282 16.4668V16.1999H9.04642C9.58522 16.1999 9.98928 16.6008 10.0566 17.0665L10.9995 22.067L13.4215 16.1999H15.7773L12.1431 24.8666ZM17.1243 24.8666H14.8357L16.7202 16.1999H19.0087L17.1243 24.8666ZM21.9695 18.6008C22.0369 18.1341 22.4409 17.8671 22.9124 17.8671C23.6532 17.8001 24.4601 17.9342 25.1336 18.2669L25.5376 16.4009C24.8641 16.134 24.1234 16 23.4511 16C21.2299 16 19.6136 17.2005 19.6136 18.8666C19.6136 20.1341 20.7585 20.7995 21.5667 21.2005C22.4409 21.6002 22.7777 21.8671 22.7103 22.2669C22.7103 22.8666 22.0369 23.1335 21.3646 23.1335C20.5565 23.1335 19.7483 22.9336 19.0087 22.5997L18.6047 24.4668C19.4128 24.7995 20.2871 24.9336 21.0952 24.9336C23.5858 24.9994 25.1336 23.8001 25.1336 22C25.1336 19.7331 21.9695 19.6002 21.9695 18.6008ZM33.1428 24.8666L31.3257 16.1999H29.3739C28.9698 16.1999 28.5657 16.4668 28.4311 16.8666L25.0662 24.8666H27.4221L27.8923 23.6002H30.7869L31.0563 24.8666H33.1428ZM29.7106 18.5338L30.3829 21.8001H28.4984L29.7106 18.5338Z" fill="#172B85"/>
</g>
<defs>
<clipPath id="clip0_53_1451">
<rect width="40" height="40" fill="white"/>
</clipPath>
</defs>
</svg>
