<svg width="40" height="40" viewBox="0 0 40 40" fill="none" xmlns="http://www.w3.org/2000/svg">
<g clip-path="url(#clip0_53_1373)">
<path d="M20 40C31.0457 40 40 31.0457 40 20C40 8.9543 31.0457 0 20 0C8.9543 0 0 8.9543 0 20C0 31.0457 8.9543 40 20 40Z" fill="#CD2900"/>
<path d="M20 29C16.5959 29 13.1598 28.8102 9.78723 28.4357C9.14446 28.3643 8.63065 27.8789 8.53787 27.255C7.82072 22.4411 7.82072 17.5591 8.53781 12.745C8.63071 12.1211 9.14453 11.6356 9.78736 11.5643C13.1596 11.1898 16.5957 11 20 11C23.4043 11 26.8404 11.1898 30.2128 11.5643C30.8555 11.6357 31.3693 12.1211 31.4621 12.745C32.1793 17.559 32.1793 22.4409 31.4622 27.255C31.3693 27.8789 30.8555 28.3643 30.2128 28.4357C26.8402 28.8101 23.4041 29 20 29Z" fill="white"/>
<path d="M16.4754 16.036L24.8264 20.2256C25.0579 20.3417 25.0579 20.6583 24.8264 20.7745L16.4754 24.964C16.2593 25.0724 16 24.9227 16 24.6896V16.3104C15.9999 16.0773 16.2593 15.9275 16.4754 16.036Z" fill="#CD2900"/>
</g>
<defs>
<clipPath id="clip0_53_1373">
<rect width="40" height="40" fill="white"/>
</clipPath>
</defs>
</svg>
