<svg width="40" height="40" viewBox="0 0 40 40" fill="none" xmlns="http://www.w3.org/2000/svg">
<g clip-path="url(#clip0_53_1415)">
<path d="M36.5715 6.57141H3.42862C1.69287 6.57141 0.285767 7.97852 0.285767 9.71427V30.2857C0.285767 32.0215 1.69287 33.4286 3.42862 33.4286H36.5715C38.3072 33.4286 39.7143 32.0215 39.7143 30.2857V9.71427C39.7143 7.97852 38.3072 6.57141 36.5715 6.57141Z" fill="white" stroke="#D9D9D9"/>
<g clip-path="url(#clip1_53_1415)">
<path d="M36.8037 18.6948L35.995 20.7346C35.995 20.7629 35.967 20.7913 35.967 20.8196L35.9391 20.8763L35.9112 20.8196C35.9112 20.7913 35.8833 20.7629 35.8833 20.7346L35.0746 18.6948H34.0148L35.4091 22.2078L34.8235 23.5393H35.8833L37.8356 18.6948H36.8037Z" fill="black"/>
<path d="M28.9946 18.8932C28.7993 18.7516 28.5762 18.6666 28.2973 18.6382C27.8231 18.5816 27.3769 18.7516 27.0979 19.0915V18.6949H26.1498V22.2079H27.0979V20.3664C27.0979 19.9414 27.1817 19.8565 27.2375 19.7431C27.3489 19.5448 27.5721 19.4315 27.8231 19.4598C28.0741 19.4598 28.3252 19.5732 28.4366 19.7715C28.5204 19.9131 28.5204 20.0831 28.5204 20.1964C28.5204 20.5081 28.5204 22.2079 28.5204 22.2079H29.4687V20.0831C29.4687 19.5165 29.3012 19.1482 28.9946 18.8932Z" fill="black"/>
<path d="M24.3369 18.7232C23.863 18.5532 23.3609 18.5815 22.8867 18.8082C22.5521 18.9498 22.3011 19.2048 22.1059 19.5164C21.9384 19.7997 21.8549 20.1114 21.8549 20.4796C21.8549 20.8479 21.9384 21.1596 22.1059 21.4429C22.2732 21.7262 22.4963 21.9245 22.7753 22.0945C23.054 22.2361 23.3888 22.3211 23.6955 22.3211C23.863 22.3211 24.0303 22.2928 24.1976 22.2645C24.3369 22.2361 24.4765 22.1795 24.6159 22.0945C24.8948 21.9245 25.118 21.7262 25.2853 21.4712C25.4525 21.1879 25.5363 20.8763 25.5363 20.508C25.5084 19.6581 25.0621 19.0065 24.3369 18.7232ZM24.588 20.4796C24.588 20.7913 24.4765 21.0463 24.2813 21.2162C24.1417 21.3579 23.9465 21.4146 23.6676 21.4146C23.4167 21.4146 23.2213 21.3296 23.054 21.2162C22.8588 21.0463 22.7753 20.7913 22.7474 20.4796C22.7474 20.1397 22.8588 19.828 23.1099 19.6297C23.2492 19.5164 23.4167 19.4598 23.6398 19.4598C23.863 19.4598 24.0303 19.5164 24.1696 19.6297C24.4765 19.828 24.6159 20.1397 24.588 20.4796Z" fill="black"/>
<path d="M20.7671 18.893C20.5998 18.7514 20.3488 18.6664 20.0699 18.6381C20.0141 18.6381 19.9583 18.6381 19.9025 18.6381C19.5121 18.6381 19.2053 18.808 18.9264 19.148L18.8706 19.2047H18.7591C18.6754 19.0914 18.5917 18.978 18.4802 18.9214C18.3128 18.7514 18.0897 18.6664 17.8108 18.6381C17.3646 18.5814 17.002 18.7231 16.6952 19.063V18.6947H15.7469V22.2077H16.6952V20.3662V20.3379C16.6952 19.9413 16.751 19.8563 16.8068 19.743C16.9183 19.5446 17.1414 19.4313 17.3646 19.4313C17.5877 19.4313 17.8108 19.5446 17.9223 19.743C18.006 19.8846 18.006 20.0546 18.006 20.2246V22.1794H18.9822V20.3096C18.9822 19.9696 19.0379 19.8279 19.0937 19.7146C19.2053 19.5163 19.4284 19.4313 19.6515 19.4313C19.8746 19.4313 20.0699 19.573 20.1814 19.743C20.2372 19.8563 20.2651 19.9979 20.2651 20.1112C20.2651 20.1679 20.2651 20.1962 20.2651 20.2529V22.2077H21.2133V20.0829C21.2133 19.8846 21.1855 19.7146 21.1576 19.5446C21.1018 19.2613 20.9623 19.0347 20.7671 18.893Z" fill="black"/>
<path d="M33.0665 21.1312C32.9271 21.2729 32.5923 21.5279 32.146 21.5562C31.7835 21.5562 31.4767 21.4712 31.2815 21.2445C31.1979 21.1312 31.1142 21.0179 31.0863 20.8763H33.7358V20.8479C33.7637 20.7063 33.7637 20.5646 33.7637 20.4513C33.7637 20.338 33.7358 20.168 33.68 19.9414C33.5685 19.5447 33.3454 19.2331 33.0385 18.9781C32.704 18.7231 32.3692 18.6382 32.2856 18.6382C31.5883 18.5248 30.8073 18.8365 30.4169 19.4881C30.1379 19.9414 30.1379 20.3946 30.1659 20.5363C30.1659 20.7063 30.1938 21.2445 30.6121 21.6978C31.0863 22.2361 31.7835 22.2644 32.0067 22.2928C32.955 22.3211 33.5964 21.7262 33.7358 21.5845L33.0665 21.1312ZM31.421 19.658C31.5604 19.5447 31.7277 19.4881 31.9508 19.4881C32.174 19.4881 32.3413 19.5447 32.4808 19.658C32.6202 19.7714 32.7319 19.913 32.7875 20.1113H31.0863C31.17 19.913 31.2815 19.7714 31.421 19.658Z" fill="black"/>
<path d="M9.16507 16.4C7.01756 16.4 5.31628 18.1565 5.31628 20.3096C5.31628 22.4627 7.04544 24.2192 9.16507 24.2192C11.2847 24.2192 13.0139 22.4627 13.0139 20.3096C13.0417 18.1565 11.2847 16.4 9.16507 16.4ZM9.16507 21.7545C8.38416 21.7545 7.71481 21.1029 7.71481 20.3096C7.71481 19.5164 8.35626 18.8648 9.16507 18.8648C9.97388 18.8648 10.6153 19.5164 10.6153 20.3096C10.5875 21.1029 9.97388 21.7545 9.16507 21.7545Z" fill="#8B3FFD"/>
<path d="M5.31617 17.5616V23.256H3.94956L2.1925 17.5616H5.31617Z" fill="#8B3FFD"/>
</g>
</g>
<defs>
<clipPath id="clip0_53_1415">
<rect width="40" height="40" fill="white"/>
</clipPath>
<clipPath id="clip1_53_1415">
<rect width="36" height="9" fill="white" transform="translate(2 16)"/>
</clipPath>
</defs>
</svg>
